<mxfile host="app.diagrams.net" agent="Mozilla/5.0 (Windows NT 10.0; Win64; x64) AppleWebKit/537.36 (KHTML, like Gecko) Chrome/131.0.0.0 Safari/537.36 Edg/131.0.0.0" version="25.0.1">
  <diagram name="第 1 页" id="JG01xrsF9quzOp1yf7Km">
    <mxGraphModel dx="848" dy="912" grid="1" gridSize="10" guides="1" tooltips="1" connect="1" arrows="1" fold="1" page="1" pageScale="1" pageWidth="827" pageHeight="1169" math="0" shadow="0">
      <root>
        <mxCell id="0" />
        <mxCell id="1" parent="0" />
        <mxCell id="wmGpJ83tDG2RF87VbaFP-17" style="edgeStyle=orthogonalEdgeStyle;rounded=0;orthogonalLoop=1;jettySize=auto;html=1;entryX=1;entryY=0.5;entryDx=0;entryDy=0;" edge="1" parent="1" source="wmGpJ83tDG2RF87VbaFP-14" target="wmGpJ83tDG2RF87VbaFP-2">
          <mxGeometry relative="1" as="geometry" />
        </mxCell>
        <mxCell id="wmGpJ83tDG2RF87VbaFP-18" style="edgeStyle=orthogonalEdgeStyle;rounded=0;orthogonalLoop=1;jettySize=auto;html=1;entryX=0.5;entryY=0;entryDx=0;entryDy=0;" edge="1" parent="1" source="wmGpJ83tDG2RF87VbaFP-14" target="wmGpJ83tDG2RF87VbaFP-1">
          <mxGeometry relative="1" as="geometry" />
        </mxCell>
        <mxCell id="wmGpJ83tDG2RF87VbaFP-14" value="multilingual source" style="swimlane;whiteSpace=wrap;html=1;" vertex="1" parent="1">
          <mxGeometry x="527" y="200" width="300" height="200" as="geometry" />
        </mxCell>
        <mxCell id="wmGpJ83tDG2RF87VbaFP-8" value="English" style="rounded=1;whiteSpace=wrap;html=1;" vertex="1" parent="wmGpJ83tDG2RF87VbaFP-14">
          <mxGeometry x="20" y="40" width="120" height="60" as="geometry" />
        </mxCell>
        <mxCell id="wmGpJ83tDG2RF87VbaFP-9" value="Chinese" style="rounded=1;whiteSpace=wrap;html=1;" vertex="1" parent="wmGpJ83tDG2RF87VbaFP-14">
          <mxGeometry x="20" y="120" width="120" height="60" as="geometry" />
        </mxCell>
        <mxCell id="wmGpJ83tDG2RF87VbaFP-11" value="Japanese" style="rounded=1;whiteSpace=wrap;html=1;" vertex="1" parent="wmGpJ83tDG2RF87VbaFP-14">
          <mxGeometry x="160" y="40" width="120" height="60" as="geometry" />
        </mxCell>
        <mxCell id="wmGpJ83tDG2RF87VbaFP-12" value="Cantonese" style="rounded=1;whiteSpace=wrap;html=1;" vertex="1" parent="wmGpJ83tDG2RF87VbaFP-14">
          <mxGeometry x="160" y="120" width="120" height="60" as="geometry" />
        </mxCell>
        <mxCell id="wmGpJ83tDG2RF87VbaFP-20" style="edgeStyle=orthogonalEdgeStyle;rounded=0;orthogonalLoop=1;jettySize=auto;html=1;" edge="1" parent="1" source="wmGpJ83tDG2RF87VbaFP-19">
          <mxGeometry relative="1" as="geometry">
            <mxPoint x="607" y="200" as="targetPoint" />
          </mxGeometry>
        </mxCell>
        <mxCell id="wmGpJ83tDG2RF87VbaFP-19" value="Schema data" style="rounded=1;whiteSpace=wrap;html=1;" vertex="1" parent="1">
          <mxGeometry x="547" y="70" width="120" height="60" as="geometry" />
        </mxCell>
        <mxCell id="wmGpJ83tDG2RF87VbaFP-21" value="query data" style="rounded=1;whiteSpace=wrap;html=1;" vertex="1" parent="1">
          <mxGeometry x="677" y="70" width="120" height="60" as="geometry" />
        </mxCell>
        <mxCell id="wmGpJ83tDG2RF87VbaFP-23" style="edgeStyle=orthogonalEdgeStyle;rounded=0;orthogonalLoop=1;jettySize=auto;html=1;entryX=0.701;entryY=0;entryDx=0;entryDy=0;entryPerimeter=0;" edge="1" parent="1" source="wmGpJ83tDG2RF87VbaFP-21" target="wmGpJ83tDG2RF87VbaFP-14">
          <mxGeometry relative="1" as="geometry">
            <mxPoint x="737" y="200" as="targetPoint" />
          </mxGeometry>
        </mxCell>
        <mxCell id="wmGpJ83tDG2RF87VbaFP-24" value="Chain of thought" style="swimlane;whiteSpace=wrap;html=1;" vertex="1" parent="1">
          <mxGeometry x="327" y="100" width="160" height="350" as="geometry" />
        </mxCell>
        <mxCell id="wmGpJ83tDG2RF87VbaFP-3" value="" style="edgeStyle=orthogonalEdgeStyle;rounded=0;orthogonalLoop=1;jettySize=auto;html=1;" edge="1" parent="wmGpJ83tDG2RF87VbaFP-24" source="wmGpJ83tDG2RF87VbaFP-1" target="wmGpJ83tDG2RF87VbaFP-2">
          <mxGeometry relative="1" as="geometry" />
        </mxCell>
        <mxCell id="wmGpJ83tDG2RF87VbaFP-1" value="Schema Filtering" style="rounded=1;whiteSpace=wrap;html=1;" vertex="1" parent="wmGpJ83tDG2RF87VbaFP-24">
          <mxGeometry x="20" y="40" width="120" height="60" as="geometry" />
        </mxCell>
        <mxCell id="wmGpJ83tDG2RF87VbaFP-5" value="" style="edgeStyle=orthogonalEdgeStyle;rounded=0;orthogonalLoop=1;jettySize=auto;html=1;" edge="1" parent="wmGpJ83tDG2RF87VbaFP-24" source="wmGpJ83tDG2RF87VbaFP-2" target="wmGpJ83tDG2RF87VbaFP-4">
          <mxGeometry relative="1" as="geometry" />
        </mxCell>
        <mxCell id="wmGpJ83tDG2RF87VbaFP-25" style="edgeStyle=orthogonalEdgeStyle;rounded=0;orthogonalLoop=1;jettySize=auto;html=1;" edge="1" parent="wmGpJ83tDG2RF87VbaFP-24" source="wmGpJ83tDG2RF87VbaFP-2" target="wmGpJ83tDG2RF87VbaFP-1">
          <mxGeometry relative="1" as="geometry" />
        </mxCell>
        <mxCell id="wmGpJ83tDG2RF87VbaFP-2" value="Question Decomposition" style="rounded=1;whiteSpace=wrap;html=1;" vertex="1" parent="wmGpJ83tDG2RF87VbaFP-24">
          <mxGeometry x="20" y="120" width="120" height="60" as="geometry" />
        </mxCell>
        <mxCell id="wmGpJ83tDG2RF87VbaFP-7" value="" style="edgeStyle=orthogonalEdgeStyle;rounded=0;orthogonalLoop=1;jettySize=auto;html=1;" edge="1" parent="wmGpJ83tDG2RF87VbaFP-24" source="wmGpJ83tDG2RF87VbaFP-4" target="wmGpJ83tDG2RF87VbaFP-6">
          <mxGeometry relative="1" as="geometry" />
        </mxCell>
        <mxCell id="wmGpJ83tDG2RF87VbaFP-4" value="Entity Retrieval" style="rounded=1;whiteSpace=wrap;html=1;" vertex="1" parent="wmGpJ83tDG2RF87VbaFP-24">
          <mxGeometry x="20" y="200" width="120" height="60" as="geometry" />
        </mxCell>
        <mxCell id="wmGpJ83tDG2RF87VbaFP-6" value="Query Generation" style="rounded=1;whiteSpace=wrap;html=1;" vertex="1" parent="wmGpJ83tDG2RF87VbaFP-24">
          <mxGeometry x="20" y="280" width="120" height="60" as="geometry" />
        </mxCell>
        <mxCell id="wmGpJ83tDG2RF87VbaFP-32" style="edgeStyle=orthogonalEdgeStyle;rounded=0;orthogonalLoop=1;jettySize=auto;html=1;" edge="1" parent="1" source="wmGpJ83tDG2RF87VbaFP-26">
          <mxGeometry relative="1" as="geometry">
            <mxPoint x="327" y="250" as="targetPoint" />
          </mxGeometry>
        </mxCell>
        <mxCell id="wmGpJ83tDG2RF87VbaFP-26" value="multi model" style="swimlane;whiteSpace=wrap;html=1;" vertex="1" parent="1">
          <mxGeometry x="17" y="150" width="280" height="200" as="geometry" />
        </mxCell>
        <mxCell id="wmGpJ83tDG2RF87VbaFP-27" value="gpt-4o-mini" style="rounded=1;whiteSpace=wrap;html=1;" vertex="1" parent="wmGpJ83tDG2RF87VbaFP-26">
          <mxGeometry x="20" y="40" width="120" height="60" as="geometry" />
        </mxCell>
        <mxCell id="wmGpJ83tDG2RF87VbaFP-28" value="gpt-4o" style="rounded=1;whiteSpace=wrap;html=1;" vertex="1" parent="wmGpJ83tDG2RF87VbaFP-26">
          <mxGeometry x="20" y="110" width="120" height="60" as="geometry" />
        </mxCell>
        <mxCell id="wmGpJ83tDG2RF87VbaFP-29" value="qwen2.5-coder-7b" style="rounded=1;whiteSpace=wrap;html=1;" vertex="1" parent="wmGpJ83tDG2RF87VbaFP-26">
          <mxGeometry x="150" y="40" width="120" height="60" as="geometry" />
        </mxCell>
        <mxCell id="wmGpJ83tDG2RF87VbaFP-30" value="qwen-max" style="rounded=1;whiteSpace=wrap;html=1;" vertex="1" parent="wmGpJ83tDG2RF87VbaFP-26">
          <mxGeometry x="150" y="110" width="120" height="60" as="geometry" />
        </mxCell>
        <mxCell id="wmGpJ83tDG2RF87VbaFP-34" value="results" style="rounded=1;whiteSpace=wrap;html=1;" vertex="1" parent="1">
          <mxGeometry x="347" y="520" width="120" height="60" as="geometry" />
        </mxCell>
        <mxCell id="wmGpJ83tDG2RF87VbaFP-33" style="edgeStyle=orthogonalEdgeStyle;rounded=0;orthogonalLoop=1;jettySize=auto;html=1;entryX=0.5;entryY=0;entryDx=0;entryDy=0;" edge="1" parent="1" source="wmGpJ83tDG2RF87VbaFP-6" target="wmGpJ83tDG2RF87VbaFP-34">
          <mxGeometry relative="1" as="geometry">
            <mxPoint x="407" y="549.9999999999998" as="targetPoint" />
          </mxGeometry>
        </mxCell>
        <mxCell id="wmGpJ83tDG2RF87VbaFP-35" value="input" style="text;html=1;align=center;verticalAlign=middle;whiteSpace=wrap;rounded=0;fontStyle=1" vertex="1" parent="1">
          <mxGeometry x="547" y="30" width="60" height="30" as="geometry" />
        </mxCell>
      </root>
    </mxGraphModel>
  </diagram>
</mxfile>
